<svg width="1456" height="180" viewBox="0 0 1456 180" fill="none" xmlns="http://www.w3.org/2000/svg">
  <defs>
    <linearGradient id="bg" x1="0" y1="0" x2="1456" y2="180" gradientUnits="userSpaceOnUse">
      <stop stop-color="#C90000" />
      <stop offset="1" stop-color="#F51A00" />
    </linearGradient>
    <linearGradient id="gold" x1="736" y1="8" x2="842" y2="128" gradientUnits="userSpaceOnUse">
      <stop stop-color="#FFF4B4" />
      <stop offset="0.45" stop-color="#FFD850" />
      <stop offset="1" stop-color="#B57500" />
    </linearGradient>
    <radialGradient id="glow" cx="0" cy="0" r="1" gradientUnits="userSpaceOnUse" gradientTransform="translate(1090 24) rotate(90) scale(120 360)">
      <stop stop-color="#FFAD8D" stop-opacity="0.42" />
      <stop offset="1" stop-color="#FFAD8D" stop-opacity="0" />
    </radialGradient>
  </defs>

  <rect width="1456" height="180" fill="url(#bg)"/>
  <rect x="230" y="132" width="1226" height="48" fill="#23252B"/>
  <rect width="230" height="180" fill="#D00000"/>
  <ellipse cx="1090" cy="24" rx="320" ry="120" fill="url(#glow)"/>

  <g opacity="0.22" fill="#FF9D86">
    <circle cx="260" cy="38" r="8"/>
    <circle cx="302" cy="70" r="14"/>
    <circle cx="356" cy="40" r="6"/>
    <circle cx="440" cy="28" r="12"/>
    <circle cx="526" cy="74" r="16"/>
    <circle cx="612" cy="36" r="10"/>
    <circle cx="690" cy="68" r="7"/>
    <circle cx="980" cy="30" r="13"/>
    <circle cx="1116" cy="46" r="9"/>
    <circle cx="1260" cy="26" r="7"/>
    <circle cx="1318" cy="62" r="14"/>
    <circle cx="1410" cy="34" r="10"/>
  </g>
  <g opacity="0.3" fill="#FF3B1A">
    <circle cx="294" cy="98" r="22"/>
    <circle cx="880" cy="16" r="18"/>
    <circle cx="1008" cy="84" r="14"/>
    <circle cx="1228" cy="88" r="20"/>
  </g>
  <path d="M430 0L560 180" stroke="#FF886F" stroke-opacity="0.2" stroke-width="2"/>
  <path d="M1166 0L1036 180" stroke="#FF886F" stroke-opacity="0.2" stroke-width="2"/>

  <g>
    <text x="28" y="30" fill="#FFF5ED" font-family="Arial, Helvetica, sans-serif" font-size="15" font-weight="700">ドメイン取るなら</text>
    <text x="126" y="30" fill="#FFE000" font-family="Arial, Helvetica, sans-serif" font-size="15" font-weight="800">GMO登録サービス</text>
    <rect x="62" y="44" width="104" height="46" rx="10" fill="#FFEF45" stroke="#322B00" stroke-width="2"/>
    <text x="114" y="76" text-anchor="middle" fill="#222222" font-family="Arial Black, Arial, Helvetica, sans-serif" font-size="30" font-weight="900">お名前.com</text>
    <rect x="116" y="48" width="24" height="11" rx="2" fill="#1C1F24"/>
    <text x="128" y="57" text-anchor="middle" fill="#FFFFFF" font-family="Arial, Helvetica, sans-serif" font-size="7" font-weight="800">.com</text>
    <rect x="143" y="48" width="20" height="11" rx="2" fill="#1C1F24"/>
    <text x="153" y="57" text-anchor="middle" fill="#FFFFFF" font-family="Arial, Helvetica, sans-serif" font-size="7" font-weight="800">.jp</text>
    <rect x="164" y="48" width="28" height="11" rx="2" fill="#1C1F24"/>
    <text x="178" y="57" text-anchor="middle" fill="#FFFFFF" font-family="Arial, Helvetica, sans-serif" font-size="7" font-weight="800">.co.jp</text>
    <text x="114" y="98" text-anchor="middle" fill="#FFF5ED" font-family="Arial, Helvetica, sans-serif" font-size="15" font-weight="700">https://www.onamae.com</text>
    <text x="114" y="120" text-anchor="middle" fill="#FFE0D5" font-family="Arial, Helvetica, sans-serif" font-size="12" font-weight="700">by GMO</text>
  </g>

  <text x="612" y="38" text-anchor="middle" fill="#FFF0EA" font-family="Arial, Helvetica, sans-serif" font-size="27" font-weight="800">ドメイン登録数</text>
  <text x="356" y="116" fill="#FFFFFF" font-family="Arial Black, Arial, Helvetica, sans-serif" font-size="76" font-weight="900">国内シェア</text>
  <text x="770" y="114" fill="url(#gold)" font-family="Arial Black, Arial, Helvetica, sans-serif" font-size="122" font-weight="900">No.1</text>

  <g>
    <rect x="864" y="16" width="126" height="47" rx="6" fill="#23252B"/>
    <rect x="864" y="66" width="126" height="47" rx="6" fill="#23252B"/>
    <rect x="864" y="116" width="126" height="47" rx="6" fill="#23252B"/>
    <text x="927" y="48" text-anchor="middle" fill="#FFFFFF" font-family="Arial Black, Arial, Helvetica, sans-serif" font-size="27" font-weight="900">.com</text>
    <text x="927" y="98" text-anchor="middle" fill="#FFFFFF" font-family="Arial Black, Arial, Helvetica, sans-serif" font-size="27" font-weight="900">.net</text>
    <text x="927" y="148" text-anchor="middle" fill="#FFFFFF" font-family="Arial Black, Arial, Helvetica, sans-serif" font-size="27" font-weight="900">.jp</text>
  </g>

  <text x="1004" y="112" fill="#FFFFFF" font-family="Arial Black, Arial, Helvetica, sans-serif" font-size="114" font-weight="900">0円から</text>

  <g transform="translate(618 124)">
    <circle cx="18" cy="18" r="18" fill="#FFF04A" stroke="#23252B" stroke-width="4"/>
    <path d="M18 8L27 14C31 16 33 21 31 25C29 29 25 31 20 30L18 29L19 36H11L11 28L5 28C1 28 -2 25 -2 21C-2 16 2 12 7 12H12L14 8H18Z" fill="#FFFDF5" stroke="#23252B" stroke-width="4" stroke-linejoin="round"/>
  </g>
  <text x="688" y="162" fill="#FFF8F0" font-family="Arial, Helvetica, sans-serif" font-size="28" font-weight="800">ドメインは早い者勝ち</text>
</svg>
